#!OML:ASF H:\GeneralSubjects\Female5\Project 1\Capture day 1\Session 1\Female5.ASF
:FULLY-SPECIFIED
:DEGREES
263
root 2.492 17.5449 0.451658 169.447 -56.9498 178.621
lowerback 12.7706 2.22309 4.88021
upperback -6.70007 4.43271 6.84713
thorax -14.9982 1.8622 3.9076
lowerneck -13.0896 4.27488 5.91964
upperneck 36.6976 7.43125 -12.4213
head 16.01 1.4944 -5.43556
rclavicle -2.06736e-014 1.33583e-013
rhumerus -74.515 16.7761 -106.236
rradius 27.0858
rwrist -18.5756
rhand -38.3632 1.84772
rfingers 7.12502
rthumb -11.3896 -27.823
lclavicle -2.06736e-014 1.33583e-013
lhumerus -67.0548 5.82879 69.4067
lradius 33.4547
lwrist -7.60283
lhand -34.1813 30.0847
lfingers 7.12502
lthumb -7.35457 59.9369
rfemur -4.59381 -20.0902 20.5286
rtibia 45.0197
rfoot -26.7861 0.991161
rtoes 7.56735
lfemur -9.47863 12.3675 -28.623
ltibia 55.7674
lfoot -28.5679 1.29695
ltoes -62.7312
264
root 2.54431 17.4873 0.442302 169.43 -57.1394 178.815
lowerback 13.0748 2.15683 4.70577
upperback -6.56912 4.33529 6.74544
thorax -15.0295 1.83456 3.90223
lowerneck -13.1224 4.39771 5.83949
upperneck 36.3671 7.64358 -12.4042
head 15.875 1.596 -5.34172
rclavicle 3.10104e-014 -5.24792e-014
rhumerus -73.6643 17.0045 -106.354
rradius 26.3606
rwrist -19.258
rhand -37.0079 3.92424
rfingers 7.12502
rthumb -10.0822 -25.8142
lclavicle 3.10104e-014 -5.24792e-014
lhumerus -66.4324 4.93513 72.9925
lradius 33.1969
lwrist -6.78523
lhand -33.8794 31.65
lfingers 7.12502
lthumb -7.06317 61.5122
rfemur -5.50699 -20.2264 21.0957
rtibia 46.0135
rfoot -25.9136 1.57623
rtoes 7.11249
lfemur -10.4006 12.4799 -28.3739
ltibia 56.8732
lfoot -27.7422 0.786455
ltoes -62.847
265
root 2.59471 17.4185 0.430748 169.588 -57.3706 178.721
lowerback 13.4398 2.14166 4.30038
upperback -6.43235 4.27183 6.66779
thorax -15.1133 1.84837 4.04589
lowerneck -13.2566 4.54739 5.87769
upperneck 36.0526 7.93645 -12.5874
head 15.8066 1.71864 -5.35123
rclavicle 6.36111e-015 5.40694e-014
rhumerus -73.2455 17.1336 -106.313
rradius 26.2662
rwrist -19.8613
rhand -36.0722 6.30679
rfingers 7.12502
rthumb -9.17942 -23.4734
lclavicle 6.36111e-015 5.40694e-014
lhumerus -65.9253 3.23283 77.0993
lradius 33.9773
lwrist -5.36276
lhand -31.6041 33.9566
lfingers 7.12502
lthumb -4.86651 63.8807
rfemur -6.28386 -20.4779 21.3704
rtibia 46.987
rfoot -25.2337 2.25146
rtoes 6.28619
lfemur -11.2677 12.6723 -28.2849
ltibia 58.1222
lfoot -27.22 0.141827
ltoes -62.6984
266
root 2.64364 17.3397 0.418442 169.824 -57.6691 178.492
lowerback 13.9082 2.15841 3.77005
upperback -6.31012 4.23693 6.61008
thorax -15.2931 1.88928 4.27685
lowerneck -13.295 4.58241 5.86408
upperneck 35.6049 8.09383 -12.8771
head 15.6336 1.76973 -5.41034
rclavicle -3.73715e-014 -3.18055e-014
rhumerus -73.3116 17.3327 -106.372
rradius 26.696
rwrist -21.0624
rhand -34.8317 9.83015
rfingers 7.12502
rthumb -7.98236 -19.9991
lclavicle -3.73715e-014 -3.18055e-014
lhumerus -65.4724 1.11316 80.9292
lradius 35.3954
lwrist -4.6342
lhand -22.8539 38.7682
lfingers 7.12502
lthumb 3.58417 68.7178
rfemur -7.03185 -20.5257 21.5924
rtibia 47.861
rfoot -24.5711 2.93339
rtoes 5.4556
lfemur -12.1287 12.8499 -28.3254
ltibia 59.3493
lfoot -26.9979 -0.288213
ltoes -62.5178
267
root 2.70101 17.2507 0.408774 169.835 -58.0454 178.46
lowerback 14.4918 2.14981 3.32178
upperback -6.11874 4.18567 6.58268
thorax -15.4573 1.91605 4.49839
lowerneck -13.4974 4.48422 5.59432
upperneck 35.1541 8.02773 -12.8891
head 15.4357 1.72896 -5.33152
rclavicle -1.11319e-014 -4.77083e-014
rhumerus -73.3102 17.9037 -107.008
rradius 26.8445
rwrist -22.9369
rhand -33.7647 14.1005
rfingers 7.12502
rthumb -6.95244 -15.7653
lclavicle -1.11319e-014 -4.77083e-014
lhumerus -64.6722 -0.535572 83.4489
lradius 36.9808
lwrist -5.36501
lhand -28.6847 33.3725
lfingers 7.12502
lthumb -2.04718 63.3424
rfemur -7.85098 -20.2479 22.0741
rtibia 48.6184
rfoot -24.0485 3.78263
rtoes 4.85592
lfemur -13.0693 12.9553 -28.3174
ltibia 60.57
lfoot -27.2525 -0.638605
ltoes -62.4953
268
root 2.76765 17.1541 0.400182 169.45 -58.4934 178.848
lowerback 15.1206 2.11176 3.02913
upperback -5.85599 4.1227 6.61944
thorax -15.5562 1.92358 4.70805
lowerneck -13.6854 4.17666 5.20531
upperneck 34.6775 7.66144 -12.8891
head 15.1757 1.5467 -5.27498
rclavicle -1.59028e-014 -4.6118e-014
rhumerus -73.0309 18.4926 -107.552
rradius 26.7068
rwrist -24.8411
rhand -32.5761 18.5298
rfingers 7.12502
rthumb -5.80498 -11.3707
lclavicle -1.59028e-014 -4.6118e-014
lhumerus -63.4898 -1.81017 85.0852
lradius 38.6132
lwrist -5.728
lhand -29.6941 31.1571
lfingers 7.12502
lthumb -3.02207 61.1154
rfemur -9.37347 -20.6799 22.7099
rtibia 51.0033
rfoot -23.1791 4.18096
rtoes 5.27583
lfemur -14.2421 13.1752 -28.1193
ltibia 62.0406
lfoot -27.8177 -0.967333
ltoes -62.637
269
root 2.83179 17.053 0.388682 168.951 -58.9758 179.341
lowerback 15.69 2.06298 2.77239
upperback -5.59661 4.04179 6.64584
thorax -15.6147 1.91764 4.89293
lowerneck -14.9224 4.67743 5.94796
upperneck 34.4443 8.41975 -13.3043
head 15.5382 1.92119 -5.44491
rclavicle 3.81667e-014 -5.725e-014
rhumerus -73.1191 18.937 -108.121
rradius 27.0295
rwrist -26.3993
rhand -31.5546 21.7719
rfingers 7.12502
rthumb -4.81868 -8.15331
lclavicle 3.81667e-014 -5.725e-014
lhumerus -62.2479 -3.0193 86.2385
lradius 40.3709
lwrist -5.14318
lhand -29.4962 30.4395
lfingers 7.12502
lthumb -2.83089 60.4005
rfemur -10.5404 -21.0539 23.3413
rtibia 52.7915
rfoot -22.4584 4.68951
rtoes 5.39119
lfemur -15.4957 13.3759 -27.9536
ltibia 63.6489
lfoot -27.8326 -1.0379
ltoes -62.4124
270
root 2.89733 16.9476 0.376108 168.544 -59.5182 179.717
lowerback 16.2498 2.01284 2.44664
upperback -5.39606 3.94081 6.64216
thorax -15.7375 1.90821 5.09317
lowerneck -15.1886 4.53025 5.69651
upperneck 34.2738 8.2309 -13.1743
head 15.4678 1.83385 -5.35468
rclavicle 3.57812e-014 3.81667e-014
rhumerus -73.9433 19.5871 -109.379
rradius 28.0242
rwrist -28.198
rhand -31.0156 23.6185
rfingers 7.12502
rthumb -4.29821 -6.31784
lclavicle 3.57812e-014 3.81667e-014
lhumerus -61.0691 -3.90368 86.8987
lradius 42.1886
lwrist -3.75768
lhand -29.8187 30.5161
lfingers 7.12502
lthumb -3.14238 60.4727
rfemur -11.5276 -21.3906 23.8166
rtibia 54.182
rfoot -21.8546 5.07594
rtoes 4.5092
lfemur -16.7706 13.2099 -27.9647
ltibia 65.4532
lfoot -27.1915 -1.1706
ltoes -62.643
271
root 2.96903 16.8411 0.367315 168.114 -60.1836 180.135
lowerback 16.8928 1.91984 2.05994
upperback -5.21338 3.77511 6.70444
thorax -15.9377 1.87967 5.43042
lowerneck -15.524 4.32679 5.2897
upperneck 34.2566 8.02317 -13.1031
head 15.4857 1.69472 -5.28236
rclavicle -3.02153e-014 1.90833e-014
rhumerus -75.0557 20.5069 -110.872
rradius 29.2317
rwrist -30.2758
rhand -30.5846 24.7262
rfingers 7.12502
rthumb -3.882 -5.21818
lclavicle -3.02153e-014 1.90833e-014
lhumerus -59.8156 -4.21979 87.2077
lradius 43.9599
lwrist -1.37519
lhand -30.8432 30.2927
lfingers 7.12502
lthumb -4.13173 60.2324
rfemur -12.52 -21.7987 24.2616
rtibia 55.4232
rfoot -21.398 5.43322
rtoes 3.58835
lfemur -18.2595 12.6388 -28.0674
ltibia 67.5922
lfoot -26.6784 -1.31772
ltoes -62.9837
272
root 3.03881 16.741 0.363235 167.68 -60.8887 180.653
lowerback 17.531 1.82706 1.72755
upperback -5.08042 3.62046 6.79637
thorax -16.1928 1.85327 5.77624
lowerneck -15.8075 4.23021 5.2395
upperneck 33.7203 7.99455 -13.4268
head 15.3098 1.65792 -5.37434
rclavicle 5.725e-014 -4.92986e-014
rhumerus -76.0887 21.2142 -111.836
rradius 30.3485
rwrist -32.1784
rhand -29.7931 25.8395
rfingers 7.12502
rthumb -3.11767 -4.11742
lclavicle 5.725e-014 -4.92986e-014
lhumerus -58.5706 -4.40958 87.3629
lradius 45.9282
lwrist 1.37244
lhand -31.6724 30.7714
lfingers 7.12502
lthumb -4.93241 60.694
rfemur -13.6099 -22.2155 24.7666
rtibia 56.6061
rfoot -21.0347 6.11298
rtoes 2.01001
lfemur -20.0365 11.868 -28.2548
ltibia 69.954
lfoot -26.7446 -1.26583
ltoes -63.1774
273
root 3.10248 16.6483 0.359424 167.203 -61.517 181.284
lowerback 18.0528 1.79449 1.69252
upperback -5.00328 3.59586 6.74409
thorax -16.4199 1.84612 5.7417
lowerneck -15.8947 4.01433 5.21159
upperneck 33.2093 7.70643 -13.5504
head 15.0502 1.54757 -5.4262
rclavicle -4.77083e-015 1.20861e-013
rhumerus -76.7804 21.3744 -112.18
rradius 31.4264
rwrist -32.8792
rhand -28.6196 24.7292
rfingers 7.12502
rthumb -1.9843 -5.24133
lclavicle -4.77083e-015 1.20861e-013
lhumerus -57.2376 -4.86301 87.3907
lradius 47.9297
lwrist 3.78397
lhand -32.478 33.0479
lfingers 7.12502
lthumb -5.71025 62.951
rfemur -14.6994 -22.4559 25.3643
rtibia 57.614
rfoot -20.7142 6.90219
rtoes -0.444355
lfemur -21.9203 10.9914 -28.4024
ltibia 72.4004
lfoot -26.5406 -1.29624
ltoes -63.2767
274
root 3.16185 16.5625 0.354249 166.625 -62.1205 181.924
lowerback 18.5154 1.74924 1.70521
upperback -4.88399 3.55323 6.64159
thorax -16.5469 1.82113 5.62244
lowerneck -16.3255 4.06578 5.45756
upperneck 32.9581 7.71542 -13.5009
head 15.041 1.60834 -5.42308
rclavicle -2.82274e-014 -3.81667e-014
rhumerus -77.044 21.5947 -112.124
rradius 32.238
rwrist -31.3688
rhand -27.2697 19.6901
rfingers 7.12502
rthumb -0.680614 -10.2886
lclavicle -2.82274e-014 -3.81667e-014
lhumerus -55.6103 -5.18506 87.3444
lradius 49.4436
lwrist 5.40174
lhand -33.4213 35.1676
lfingers 7.12502
lthumb -6.62089 65.0441
rfemur -15.6463 -22.5761 25.9309
rtibia 58.6163
rfoot -20.2701 7.32532
rtoes -2.41911
lfemur -23.6825 9.97112 -28.4388
ltibia 74.7217
lfoot -25.4014 -1.37054
ltoes -63.1369
275
root 3.20887 16.4869 0.349349 165.931 -62.6955 182.479
lowerback 18.9373 1.671 1.59986
upperback -4.67703 3.43269 6.5963
thorax -16.545 1.77469 5.66097
lowerneck -16.2072 3.82548 5.03179
upperneck 32.8513 7.26267 -12.8222
head 14.8355 1.47072 -5.10975
rclavicle 2.66371e-014 -3.18055e-015
rhumerus -77.0857 22.3727 -111.846
rradius 32.5069
rwrist -28.877
rhand -25.4849 13.3467
rfingers 7.12502
rthumb 1.04323 -16.6305
lclavicle 2.66371e-014 -3.18055e-015
lhumerus -53.8695 -5.47817 87.4916
lradius 50.3965
lwrist 5.93041
lhand -34.1318 35.9071
lfingers 7.12502
lthumb -7.30677 65.7609
rfemur -16.3738 -22.9094 26.3024
rtibia 59.9014
rfoot -19.6764 7.51161
rtoes -4.32436
lfemur -25.1273 8.80802 -28.3605
ltibia 76.9744
lfoot -23.4214 -1.71348
ltoes -63.3111
276
root 3.24011 16.4283 0.345914 165.01 -63.0556 183.154
lowerback 19.3042 1.6031 1.53174
upperback -4.40295 3.33255 6.64249
thorax -16.433 1.73531 5.77755
lowerneck -16.4302 3.95766 4.7971
upperneck 33.101 7.34707 -12.163
head 14.9648 1.55968 -4.78009
rclavicle -2.94201e-014 1.1291e-013
rhumerus -76.7954 23.6268 -110.965
rradius 32.2672
rwrist -27.188
rhand -23.2508 8.20796
rfingers 7.12502
rthumb 3.20092 -21.7478
lclavicle -2.94201e-014 1.1291e-013
lhumerus -52.1413 -5.7915 87.8998
lradius 50.7997
lwrist 5.32174
lhand -34.6775 35.1036
lfingers 7.12502
lthumb -7.83353 64.9384
rfemur -16.8746 -23.3598 26.6768
rtibia 61.0773
rfoot -19.3216 7.67014
rtoes -5.69703
lfemur -26.2913 7.87171 -28.0723
ltibia 79.0855
lfoot -21.0225 -2.37404
ltoes -64.2391
277
root 3.26775 16.3921 0.346386 164.168 -63.2031 183.636
lowerback 19.7796 1.58882 1.41698
upperback -4.13128 3.29614 6.66203
thorax -16.3974 1.72818 5.87033
lowerneck -16.5592 4.02422 4.98891
upperneck 33.2334 7.36355 -12.0585
head 15.0609 1.60222 -4.77557
rclavicle 9.54166e-015 -3.02153e-014
rhumerus -76.3298 25.1381 -109.891
rradius 31.9392
rwrist -27.1171
rhand -21.8705 3.66831
rfingers 7.12502
rthumb 4.53383 -26.2632
lclavicle 9.54166e-015 -3.02153e-014
lhumerus -50.3709 -6.24483 88.4428
lradius 51.0174
lwrist 4.92539
lhand -34.4408 35.7177
lfingers 7.12502
lthumb -7.60506 65.561
rfemur -17.3381 -23.6224 27.003
rtibia 62.2189
rfoot -19.278 7.70443
rtoes -6.40896
lfemur -27.2076 7.3201 -27.6971
ltibia 80.7357
lfoot -17.9308 -3.5408
ltoes -65.0405
